Coordinates
version=1
nRows=14
nColumns=40
inDegrees=yes

Units are S.I. units (second, meters, Newtons, ...)
If the header above contains a line with 'inDegrees', this indicates whether rotational values are in degrees (yes) or radians (no).

endheader
time	pelvis_tilt	pelvis_list	pelvis_rotation	pelvis_tx	pelvis_ty	pelvis_tz	hip_flexion_r	hip_adduction_r	hip_rotation_r	knee_angle_r	knee_angle_r_beta	ankle_angle_r	subtalar_angle_r	mtp_angle_r	hip_flexion_l	hip_adduction_l	hip_rotation_l	knee_angle_l	knee_angle_l_beta	ankle_angle_l	subtalar_angle_l	mtp_angle_l	lumbar_extension	lumbar_bending	lumbar_rotation	arm_flex_r	arm_add_r	arm_rot_r	elbow_flex_r	pro_sup_r	wrist_flex_r	wrist_dev_r	arm_flex_l	arm_add_l	arm_rot_l	elbow_flex_l	pro_sup_l	wrist_flex_l	wrist_dev_l
      0.00000000	     -7.59866933	     -5.33611290	      3.89639099	     -0.23301510	      1.15689123	     -0.02603529	     51.98143029	     -3.74847222	     -6.84110000	     56.35493127	      0.98357910	     10.37374970	      0.20572314	      0.00000000	     65.99114405	    -10.26147780	     12.22729038	    105.86809169	      1.84774677	      4.12257853	      4.59382135	      0.00000000	    -61.16786291	      6.65511480	      4.62830030	     85.25467270	    -13.56084470	     56.15788228	     23.50513994	     67.84001900	      0.00000000	      0.00000000	     79.75119480	     -8.56423875	     28.78944736	     31.53560790	     73.57356367	      0.00000000	      0.00000000
      0.00833333	     -7.64590527	     -4.61050523	      3.90746556	     -0.23220530	      1.15620833	     -0.02663043	     49.93773899	     -4.10619635	     -6.65717788	     53.91078085	      0.94092063	      9.48980652	      0.22767939	      0.00000000	     67.79106401	     -9.67812387	     11.83590779	    108.11805735	      1.88701608	      5.32099849	      4.62097185	      0.00000000	    -60.96577916	      6.13265386	      3.85087688	     84.92798787	    -13.57055640	     55.83057113	     23.34362363	     67.77660844	      0.00000000	      0.00000000	     79.58735588	     -8.68299614	     28.86325035	     31.75935293	     73.44831277	      0.00000000	      0.00000000
      0.01666667	     -7.26565648	     -4.71118470	      4.14993967	     -0.23094771	      1.15658785	     -0.02687174	     47.34802046	     -4.15663710	     -7.65633827	     51.61680857	      0.90088326	      8.05714875	      0.79891611	      0.00000000	     69.31086159	     -9.60405503	     12.33677274	    110.16700992	      1.92277705	      6.27999146	      5.36026416	      0.00000000	    -61.27855408	      6.24922168	      3.81861667	     84.74325070	    -13.50779388	     55.49447556	     23.08770318	     68.12193486	      0.00000000	      0.00000000	     79.51076260	     -8.76440681	     29.16425634	     31.95261366	     73.42260808	      0.00000000	      0.00000000
      0.02500000	     -7.30255992	     -4.60215721	      4.31406205	     -0.23015325	      1.15674558	     -0.02722235	     45.28530924	     -4.48897880	     -8.85143194	     49.48788287	      0.86372650	      7.02578486	      1.60829279	      0.00000000	     71.11029168	     -9.35654540	     12.53320686	    111.79249812	      1.95114717	      7.41569823	      6.11656778	      0.00000000	    -61.23849785	      6.21038841	      3.63587441	     84.63759804	    -13.49996757	     55.39256113	     23.10332662	     68.32327337	      0.00000000	      0.00000000	     79.76709631	     -8.30303722	     28.53322223	     31.10197043	     73.65607821	      0.00000000	      0.00000000
      0.03333333	     -7.42254638	     -4.13233384	      4.24238157	     -0.22944550	      1.15686371	     -0.02766025	     43.66416836	     -4.83111179	     -9.14793203	     47.91714028	      0.83631187	      5.71452518	      1.99076618	      0.00000000	     72.91415509	     -9.03571082	     12.18412700	    113.18123336	      1.97538517	      8.99606154	      6.32552261	      0.00000000	    -61.10395562	      5.78562000	      3.16458409	     84.48586513	    -13.35947424	     54.94929385	     22.96086746	     68.18445312	      0.00000000	      0.00000000	     79.66397322	     -8.40968749	     28.59103223	     31.32467504	     73.78925668	      0.00000000	      0.00000000
      0.04166667	     -7.32542092	     -3.90449768	      4.06215462	     -0.22843903	      1.15779424	     -0.02746889	     41.88150454	     -4.93673475	     -9.67016770	     46.56333075	      0.81268343	      4.60415781	      2.68805707	      0.00000000	     74.35528901	     -9.01290040	     12.02956738	    114.20825807	      1.99331014	     10.21487789	      6.51046990	      0.00000000	    -61.25090771	      5.40837055	      3.04164695	     84.36717956	    -13.25904836	     54.75103699	     22.83146685	     68.26839064	      0.00000000	      0.00000000	     79.60462670	     -8.57446777	     28.85261871	     31.70345886	     73.75934897	      0.00000000	      0.00000000
      0.05000000	     -7.08823281	     -3.84370635	      4.11436870	     -0.22740092	      1.15909830	     -0.02757140	     39.95496597	     -4.93712566	    -10.20770251	     45.33528403	      0.79124997	      3.75803108	      3.25315857	      0.00000000	     75.62620460	     -8.91348441	     12.04801911	    114.97853568	      2.00675402	     10.71307108	      6.95679952	      0.00000000	    -61.56740481	      5.30984061	      2.95735608	     84.36179446	    -13.15013512	     54.59458470	     22.60912817	     68.57169045	      0.00000000	      0.00000000	     79.65310676	     -8.67590663	     29.11082642	     31.79595290	     73.65851417	      0.00000000	      0.00000000
      0.05833333	     -7.25560556	     -3.51290187	      4.04036929	     -0.22707027	      1.15988187	     -0.02771712	     38.82337122	     -5.09691203	    -10.16303218	     44.66145363	      0.77948941	      3.00639878	      3.31753127	      0.00000000	     77.24333691	     -8.52972884	     11.71124168	    115.38607231	      2.01386687	     11.39379374	      6.85290625	      0.00000000	    -61.49870679	      4.97359822	      2.63268324	     84.30359017	    -13.12715786	     54.43164847	     22.59579799	     68.51112107	      0.00000000	      0.00000000	     79.70048639	     -8.80708193	     29.23220030	     31.91806163	     73.56385832	      0.00000000	      0.00000000
      0.06666667	     -7.34095009	     -3.28563317	      3.98827974	     -0.22663142	      1.16073919	     -0.02791277	     37.78741133	     -5.20006406	    -10.13503572	     44.38138658	      0.77460132	      2.26678423	      3.38038492	      0.00000000	     78.66472407	     -8.24130965	     11.41609599	    115.54105952	      2.01657191	     12.19164854	      6.76415070	      0.00000000	    -61.52511863	      4.72875604	      2.45353235	     84.32347497	    -13.05219801	     54.27404628	     22.59623697	     68.42947089	      0.00000000	      0.00000000	     79.77659394	     -8.88258502	     29.41769733	     32.01636296	     73.49588244	      0.00000000	      0.00000000
      0.07500000	     -7.41784315	     -3.13780162	      4.00763270	     -0.22655851	      1.16187111	     -0.02812026	     36.91986976	     -5.27260140	    -10.12879384	     44.43796065	      0.77558873	      1.60402691	      3.34999411	      0.00000000	     79.95707278	     -7.98724030	     11.09056274	    115.29530507	      2.01228269	     12.97284886	      6.71443152	      0.00000000	    -61.60571999	      4.60134064	      2.31489121	     84.45513144	    -12.96420170	     54.02124435	     22.55269697	     68.24619713	      0.00000000	      0.00000000	     79.94461934	     -8.98775376	     29.75880966	     32.09145248	     73.43800762	      0.00000000	      0.00000000
      0.08333333	     -7.49207783	     -3.10384348	      3.85370302	     -0.22632972	      1.16317455	     -0.02800988	     36.12466959	     -5.14828469	    -10.01259751	     44.65011086	      0.77929145	      1.20967638	      3.22300182	      0.00000000	     81.07659681	     -7.81162084	     10.90152305	    114.70607287	      2.00199864	     14.18979461	      6.40615798	      0.00000000	    -61.69150583	      4.38485434	      2.30828350	     84.48775065	    -12.94859645	     53.83614648	     22.49834148	     68.12482027	      0.00000000	      0.00000000	     80.05646344	     -9.08699007	     29.93748034	     32.20281914	     73.34634500	      0.00000000	      0.00000000
      0.09166667	     -7.48822896	     -2.90811125	      3.74625025	     -0.22611326	      1.16428700	     -0.02827247	     35.73566418	     -5.23849681	     -9.61875517	     45.73231767	      0.79817952	      0.87527233	      2.68293642	      0.00000000	     81.84873049	     -7.45353598	     10.53473952	    113.80316014	      1.98623984	     14.32554877	      6.30035819	      0.00000000	    -61.83435445	      4.15603091	      2.20046551	     84.52802671	    -12.97255065	     53.71639335	     22.54237835	     67.98354109	      0.00000000	      0.00000000	     80.21244727	     -9.10859292	     30.25213211	     32.16956899	     73.08649567	      0.00000000	      0.00000000
      0.10000000	     -7.65399571	     -2.53999506	      3.54186477	     -0.22623579	      1.16507333	     -0.02853816	     35.80613306	     -5.45525550	     -9.03903698	     47.19356071	      0.82368302	      0.76684476	      1.87017454	      0.00000000	     82.53358841	     -7.08268712	      9.86341930	    112.65202613	      1.96614877	     14.54207813	      5.57925423	      0.00000000	    -61.80652673	      3.77057281	      1.96323584	     84.60846940	    -12.99538824	     53.74069422	     22.48358935	     68.04470477	      0.00000000	      0.00000000	     80.31294005	     -9.15502581	     30.48230940	     32.27736478	     72.80379534	      0.00000000	      0.00000000
      0.10833333	     -7.61115029	     -2.51611683	      3.46960550	     -0.22609115	      1.16600942	     -0.02863750	     35.73609455	     -5.46202197	     -8.91583668	     48.85398024	      0.85266281	      0.66690831	      1.34708479	      0.00000000	     82.96605336	     -6.82229153	      9.66422955	    111.09393739	      1.93895499	     14.29122871	      5.54107155	      0.00000000	    -61.96719836	      3.68198936	      2.02137877	     84.57129815	    -13.11418640	     53.37898101	     22.81489280	     67.77872274	      0.00000000	      0.00000000	     80.42357441	     -9.07645573	     30.55917891	     32.24210417	     72.35897385	      0.00000000	      0.00000000
